<svg width="185" height="200" viewBox="0 0 185 200" fill="none" xmlns="http://www.w3.org/2000/svg">
<path d="M10 0V197" stroke="#FB9142" stroke-width="5" stroke-linecap="round"/>
<circle cx="10" cy="100" r="10" fill="#FB9142"/>
<path fill-rule="evenodd" clip-rule="evenodd" d="M62.5813 115.166C54.4825 115.029 49.6042 123.395 49.1741 126.853C49.1741 126.853 36.9239 130.084 40.735 141.221C44.5462 152.357 58.0215 151.257 58.0215 151.257C58.0215 151.257 61.5604 157.307 78.7107 159.781C95.861 162.256 93.1388 156.894 107.975 159.369C122.812 161.844 127.439 157.582 142.412 151.257C157.384 144.933 157.384 132.421 154.526 127.609C151.668 122.797 144.726 121.697 141.051 123.485C141.051 123.485 137.512 115.51 124.037 113.035C110.561 110.561 89.5998 104.374 62.5813 115.166V115.166Z" fill="#00E377"/>
<path fill-rule="evenodd" clip-rule="evenodd" d="M58.4978 135.584L69.7272 141.771L124.173 128.847C124.901 128.673 125.498 128.227 125.534 127.472L128.001 76.4539C128.914 57.5712 114.942 40.4924 96.2264 40.4924C86.1527 40.4924 75.6576 43.5529 68.56 50.2115C61.7462 56.604 58.1255 66.387 58.0391 76.4539L57.5464 133.342C57.5396 134.097 57.8411 135.221 58.4978 135.584V135.584Z" fill="#65625C"/>
<path fill-rule="evenodd" clip-rule="evenodd" d="M73.2662 142.32H133.701C136.321 142.32 138.465 140.155 138.465 137.508V75.3633C138.465 55.9293 122.723 40.0288 103.483 40.0288C84.2437 40.0288 68.5022 55.9293 68.5022 75.3633V137.508C68.5022 140.155 70.646 142.32 73.2662 142.32V142.32Z" fill="#9D9D9D" stroke="black" stroke-miterlimit="22.9256"/>
<path d="M102.531 40.0291C79.6717 39.4104 57.6301 48.5533 57.6301 78.7341V133.342C57.6301 137.233 69.193 140.96 70.9869 141.73" stroke="black" stroke-miterlimit="22.9256"/>
<path fill-rule="evenodd" clip-rule="evenodd" d="M60.5226 140.062C60.5226 140.062 64.606 132.156 60.7267 130.781C56.8475 129.406 55.9628 137.106 55.9628 137.106C55.9628 137.106 53.7169 133.187 52.219 134.906C50.7217 136.624 52.5599 138.893 52.5599 138.893L60.5226 140.062Z" fill="#00E377"/>
<path fill-rule="evenodd" clip-rule="evenodd" d="M91.6925 150.373C93.6655 149.754 94.7551 147.073 93.053 146.18C91.3515 145.286 89.6508 147.142 89.6508 147.142C89.6508 147.142 97.953 127.413 91.9647 126.863C85.9757 126.313 85.907 136.418 85.907 136.418C85.907 136.418 83.5937 131.675 81.484 134.768C79.3735 137.862 84.1382 145.492 84.1382 145.492L91.6925 150.373Z" fill="#00E377"/>
<path fill-rule="evenodd" clip-rule="evenodd" d="M134.091 147.348C135.657 147.83 137.018 145.767 135.52 144.736C134.023 143.705 132.595 145.561 132.595 145.561C132.595 145.561 132.935 130.369 127.558 132.912C122.181 135.456 128.579 145.699 128.579 145.699L134.091 147.348Z" fill="#00E377"/>
<path d="M60.5226 140.062C60.5226 140.062 64.606 132.156 60.7267 130.781C56.8475 129.406 55.9628 137.106 55.9628 137.106C55.9628 137.106 53.7169 133.187 52.219 134.906C50.7217 136.624 52.5599 138.893 52.5599 138.893" stroke="black" stroke-miterlimit="22.9256" stroke-linecap="round" stroke-linejoin="round"/>
<path d="M91.6925 150.373C93.6655 149.754 94.7551 147.073 93.053 146.18C91.3515 145.286 89.6508 147.142 89.6508 147.142C89.6508 147.142 97.953 127.413 91.9647 126.863C85.9757 126.313 85.907 136.418 85.907 136.418C85.907 136.418 83.5937 131.675 81.484 134.768C79.3735 137.862 84.1382 145.492 84.1382 145.492" stroke="black" stroke-miterlimit="22.9256" stroke-linecap="round" stroke-linejoin="round"/>
<path d="M134.091 147.348C135.657 147.83 137.018 145.767 135.52 144.736C134.023 143.705 132.595 145.561 132.595 145.561C132.595 145.561 132.935 130.369 127.558 132.912C122.181 135.456 128.579 145.699 128.579 145.699" stroke="black" stroke-miterlimit="22.9256" stroke-linecap="round" stroke-linejoin="round"/>
<path d="M80.6204 106.205V89.8755H77.2591C76.3764 90.7926 75.0268 91.6347 73.3588 91.8581V95.0045C73.972 95.0045 75.0758 94.9303 75.7877 94.757V106.205H80.6204ZM90.2117 89.5531C85.1584 89.5531 83.3924 93.5678 83.3924 98.0526C83.3924 102.637 85.1094 106.527 90.1382 106.527C95.2656 106.527 96.9336 102.587 96.9336 97.9536C96.9336 93.1959 95.0444 89.5531 90.2117 89.5531V89.5531ZM90.2117 92.8982C91.7572 92.8982 92.0274 94.4594 92.0274 97.9784C92.0274 101.422 91.8062 103.157 90.1872 103.157C88.5436 103.157 88.2741 101.398 88.2741 97.9784C88.2741 94.2614 88.7403 92.8982 90.2117 92.8982V92.8982ZM105.789 89.5531C100.736 89.5531 98.9692 93.5678 98.9692 98.0526C98.9692 102.637 100.686 106.527 105.716 106.527C110.842 106.527 112.51 102.587 112.51 97.9536C112.51 93.1959 110.622 89.5531 105.789 89.5531ZM105.789 92.8982C107.335 92.8982 107.604 94.4594 107.604 97.9784C107.604 101.422 107.384 103.157 105.765 103.157C104.121 103.157 103.851 101.398 103.851 97.9784C103.851 94.2614 104.317 92.8982 105.789 92.8982V92.8982ZM118.938 89.5531C115.798 89.5531 114.252 91.6594 114.252 94.3109C114.252 97.3838 115.97 99.0687 118.913 99.0687C121.857 99.0687 123.5 97.1108 123.5 94.3109C123.5 91.2882 121.759 89.5531 118.938 89.5531V89.5531ZM118.938 92.0066C119.698 92.0066 120.238 92.5022 120.238 94.3109C120.238 96.0206 119.747 96.6399 118.913 96.6399C118.054 96.6399 117.613 95.8968 117.613 94.3109C117.613 92.626 118.129 92.0066 118.938 92.0066ZM121.097 106.205L131.522 89.8508H128.946L118.545 106.205H121.097V106.205ZM131.253 96.9624C128.112 96.9624 126.567 99.0687 126.567 101.72C126.567 104.792 128.308 106.502 131.228 106.502C134.172 106.502 135.84 104.52 135.84 101.72C135.84 98.6968 134.098 96.9624 131.253 96.9624ZM131.253 99.4399C132.013 99.4399 132.553 99.9108 132.553 101.72C132.553 103.43 132.086 104.049 131.253 104.049C130.394 104.049 129.952 103.306 129.952 101.72C129.952 100.035 130.467 99.4399 131.253 99.4399Z" fill="#898989"/>
</svg>
