<svg width="185" height="200" viewBox="0 0 185 200" fill="none" xmlns="http://www.w3.org/2000/svg">
<path d="M10 0L10 200" stroke="#FB9142" stroke-width="5"/>
<circle cx="10" cy="100" r="10" fill="#FB9142"/>
<path fill-rule="evenodd" clip-rule="evenodd" d="M62.5813 115.166C54.4825 115.029 49.6042 123.395 49.1741 126.853C49.1741 126.853 36.9239 130.084 40.735 141.221C44.5462 152.357 58.0215 151.257 58.0215 151.257C58.0215 151.257 61.5604 157.307 78.7107 159.781C95.861 162.256 93.1388 156.894 107.975 159.369C122.812 161.844 127.439 157.582 142.412 151.257C157.384 144.933 157.384 132.421 154.526 127.609C151.668 122.797 144.726 121.697 141.051 123.485C141.051 123.485 137.512 115.51 124.037 113.035C110.561 110.561 89.5998 104.374 62.5813 115.166V115.166Z" fill="#00E377"/>
<path fill-rule="evenodd" clip-rule="evenodd" d="M58.4978 135.584L69.7272 141.771L124.173 128.847C124.901 128.673 125.498 128.227 125.534 127.472L128.001 76.4539C128.914 57.5712 114.942 40.4924 96.2264 40.4924C86.1527 40.4924 75.6576 43.5529 68.56 50.2115C61.7462 56.604 58.1255 66.387 58.0391 76.4539L57.5464 133.342C57.5396 134.097 57.8411 135.221 58.4978 135.584V135.584Z" fill="#65625C"/>
<path fill-rule="evenodd" clip-rule="evenodd" d="M73.2662 142.32H133.701C136.321 142.32 138.465 140.155 138.465 137.508V75.3633C138.465 55.9293 122.723 40.0288 103.483 40.0288C84.2437 40.0288 68.5022 55.9293 68.5022 75.3633V137.508C68.5022 140.155 70.646 142.32 73.2662 142.32V142.32Z" fill="#9D9D9D" stroke="black" stroke-miterlimit="22.9256"/>
<path d="M102.531 40.0291C79.6717 39.4104 57.6301 48.5533 57.6301 78.7341V133.342C57.6301 137.233 69.193 140.96 70.9869 141.73" stroke="black" stroke-miterlimit="22.9256"/>
<path fill-rule="evenodd" clip-rule="evenodd" d="M60.5226 140.062C60.5226 140.062 64.606 132.156 60.7267 130.781C56.8475 129.406 55.9628 137.106 55.9628 137.106C55.9628 137.106 53.7169 133.187 52.219 134.906C50.7217 136.624 52.5599 138.893 52.5599 138.893L60.5226 140.062Z" fill="#00E377"/>
<path fill-rule="evenodd" clip-rule="evenodd" d="M91.6925 150.373C93.6655 149.754 94.7551 147.073 93.053 146.18C91.3515 145.286 89.6508 147.142 89.6508 147.142C89.6508 147.142 97.953 127.413 91.9647 126.863C85.9757 126.313 85.907 136.418 85.907 136.418C85.907 136.418 83.5937 131.675 81.484 134.768C79.3735 137.862 84.1382 145.492 84.1382 145.492L91.6925 150.373Z" fill="#00E377"/>
<path fill-rule="evenodd" clip-rule="evenodd" d="M134.091 147.348C135.657 147.83 137.018 145.767 135.52 144.736C134.023 143.705 132.595 145.561 132.595 145.561C132.595 145.561 132.935 130.369 127.558 132.912C122.181 135.456 128.579 145.699 128.579 145.699L134.091 147.348Z" fill="#00E377"/>
<path d="M60.5226 140.062C60.5226 140.062 64.606 132.156 60.7267 130.781C56.8475 129.406 55.9628 137.106 55.9628 137.106C55.9628 137.106 53.7169 133.187 52.219 134.906C50.7217 136.624 52.5599 138.893 52.5599 138.893" stroke="black" stroke-miterlimit="22.9256" stroke-linecap="round" stroke-linejoin="round"/>
<path d="M91.6925 150.373C93.6655 149.754 94.7551 147.073 93.053 146.18C91.3515 145.286 89.6508 147.142 89.6508 147.142C89.6508 147.142 97.953 127.413 91.9647 126.863C85.9757 126.313 85.907 136.418 85.907 136.418C85.907 136.418 83.5937 131.675 81.484 134.768C79.3735 137.862 84.1382 145.492 84.1382 145.492" stroke="black" stroke-miterlimit="22.9256" stroke-linecap="round" stroke-linejoin="round"/>
<path d="M134.091 147.348C135.657 147.83 137.018 145.767 135.52 144.736C134.023 143.705 132.595 145.561 132.595 145.561C132.595 145.561 132.935 130.369 127.558 132.912C122.181 135.456 128.579 145.699 128.579 145.699" stroke="black" stroke-miterlimit="22.9256" stroke-linecap="round" stroke-linejoin="round"/>
<path d="M91.3033 89.8755H80.3625C80.1175 92.2046 79.3811 97.2346 78.9891 99.2172L83.1589 99.6138C83.4291 98.8453 83.8953 98.3249 85.0482 98.3249C86.4706 98.3249 86.9367 99.2419 86.9367 100.754C86.9367 102.216 86.3726 103.256 85.0972 103.256C83.9933 103.256 83.4536 102.587 83.2324 101.646H78.6454C78.9646 104.52 81.1968 106.527 85.1707 106.527C89.7087 106.527 91.7695 103.826 91.7695 100.431C91.7695 97.3838 89.9299 95.054 86.5692 95.054C85.2687 95.054 84.3615 95.3517 83.7476 95.7731C83.8218 95.3517 84.0423 93.9885 84.0913 93.4935H90.6901L91.3033 89.8755V89.8755ZM100.576 89.5531C95.5228 89.5531 93.7567 93.5678 93.7567 98.0526C93.7567 102.637 95.4738 106.527 100.503 106.527C105.63 106.527 107.298 102.587 107.298 97.9536C107.298 93.1959 105.409 89.5531 100.576 89.5531ZM100.576 92.8982C102.122 92.8982 102.392 94.4594 102.392 97.9784C102.392 101.422 102.171 103.157 100.552 103.157C98.9079 103.157 98.6384 101.398 98.6384 97.9784C98.6384 94.2614 99.1046 92.8982 100.576 92.8982V92.8982ZM113.725 89.5531C110.585 89.5531 109.04 91.6594 109.04 94.3109C109.04 97.3838 110.757 99.0687 113.701 99.0687C116.644 99.0687 118.288 97.1108 118.288 94.3109C118.288 91.2882 116.546 89.5531 113.725 89.5531V89.5531ZM113.725 92.0066C114.485 92.0066 115.025 92.5022 115.025 94.3109C115.025 96.0206 114.534 96.6399 113.701 96.6399C112.842 96.6399 112.4 95.8968 112.4 94.3109C112.4 92.626 112.915 92.0066 113.725 92.0066ZM115.884 106.205L126.31 89.8508H123.734L113.333 106.205H115.884V106.205ZM126.039 96.9624C122.899 96.9624 121.354 99.0687 121.354 101.72C121.354 104.792 123.096 106.502 126.015 106.502C128.959 106.502 130.627 104.52 130.627 101.72C130.627 98.6968 128.885 96.9624 126.039 96.9624ZM126.039 99.4399C126.8 99.4399 127.34 99.9108 127.34 101.72C127.34 103.43 126.874 104.049 126.039 104.049C125.181 104.049 124.74 103.306 124.74 101.72C124.74 100.035 125.255 99.4399 126.039 99.4399Z" fill="#898989"/>
</svg>
