<svg width="185" height="200" viewBox="0 0 185 200" fill="none" xmlns="http://www.w3.org/2000/svg">
<path d="M10 3L10 200" stroke="#FB9142" stroke-width="5" stroke-linecap="round"/>
<circle cx="10" cy="100" r="10" fill="#FB9142"/>
<path fill-rule="evenodd" clip-rule="evenodd" d="M62.5813 115.166C54.4825 115.029 49.6042 123.395 49.1741 126.853C49.1741 126.853 36.9239 130.084 40.735 141.22C44.5462 152.357 58.0215 151.257 58.0215 151.257C58.0215 151.257 61.5604 157.307 78.7107 159.781C95.861 162.256 93.1388 156.894 107.975 159.369C122.812 161.844 127.439 157.582 142.412 151.257C157.384 144.933 157.384 132.421 154.526 127.609C151.668 122.797 144.726 121.697 141.051 123.484C141.051 123.484 137.512 115.51 124.037 113.035C110.561 110.561 89.5998 104.374 62.5813 115.166V115.166Z" fill="#00E377"/>
<path fill-rule="evenodd" clip-rule="evenodd" d="M58.4978 135.584L69.7272 141.771L124.173 128.847C124.901 128.673 125.498 128.227 125.534 127.472L128.001 76.4539C128.914 57.5712 114.942 40.4924 96.2264 40.4924C86.1527 40.4924 75.6576 43.5529 68.56 50.2115C61.7462 56.604 58.1255 66.387 58.0391 76.4539L57.5464 133.342C57.5396 134.097 57.8411 135.221 58.4978 135.584V135.584Z" fill="#65625C"/>
<path fill-rule="evenodd" clip-rule="evenodd" d="M73.2662 142.32H133.701C136.321 142.32 138.465 140.155 138.465 137.508V75.3632C138.465 55.9292 122.723 40.0287 103.483 40.0287C84.2437 40.0287 68.5022 55.9292 68.5022 75.3632V137.508C68.5022 140.155 70.646 142.32 73.2662 142.32V142.32Z" fill="#9D9D9D" stroke="black" stroke-miterlimit="22.9256"/>
<path d="M102.531 40.0291C79.6717 39.4104 57.6301 48.5533 57.6301 78.7341V133.342C57.6301 137.233 69.193 140.96 70.987 141.73" stroke="black" stroke-miterlimit="22.9256"/>
<path fill-rule="evenodd" clip-rule="evenodd" d="M60.5226 140.062C60.5226 140.062 64.606 132.156 60.7267 130.781C56.8475 129.406 55.9628 137.106 55.9628 137.106C55.9628 137.106 53.7169 133.187 52.219 134.906C50.7217 136.624 52.5599 138.893 52.5599 138.893L60.5226 140.062Z" fill="#00E377"/>
<path fill-rule="evenodd" clip-rule="evenodd" d="M91.6925 150.373C93.6655 149.755 94.7551 147.074 93.053 146.18C91.3515 145.286 89.6508 147.142 89.6508 147.142C89.6508 147.142 97.953 127.413 91.9647 126.863C85.9757 126.313 85.907 136.418 85.907 136.418C85.907 136.418 83.5937 131.675 81.484 134.768C79.3735 137.862 84.1382 145.492 84.1382 145.492L91.6925 150.373Z" fill="#00E377"/>
<path fill-rule="evenodd" clip-rule="evenodd" d="M134.091 147.348C135.657 147.829 137.018 145.767 135.52 144.736C134.023 143.705 132.595 145.561 132.595 145.561C132.595 145.561 132.935 130.368 127.558 132.912C122.181 135.456 128.579 145.698 128.579 145.698L134.091 147.348Z" fill="#00E377"/>
<path d="M60.5226 140.062C60.5226 140.062 64.606 132.156 60.7267 130.781C56.8475 129.406 55.9628 137.106 55.9628 137.106C55.9628 137.106 53.7169 133.187 52.219 134.906C50.7217 136.624 52.5599 138.893 52.5599 138.893" stroke="black" stroke-miterlimit="22.9256" stroke-linecap="round" stroke-linejoin="round"/>
<path d="M91.6925 150.373C93.6655 149.755 94.7551 147.074 93.053 146.18C91.3515 145.286 89.6508 147.142 89.6508 147.142C89.6508 147.142 97.953 127.413 91.9647 126.863C85.9757 126.313 85.907 136.418 85.907 136.418C85.907 136.418 83.5937 131.675 81.484 134.768C79.3735 137.862 84.1382 145.492 84.1382 145.492" stroke="black" stroke-miterlimit="22.9256" stroke-linecap="round" stroke-linejoin="round"/>
<path d="M134.091 147.348C135.657 147.829 137.018 145.767 135.52 144.736C134.023 143.705 132.595 145.561 132.595 145.561C132.595 145.561 132.935 130.368 127.558 132.912C122.181 135.456 128.579 145.698 128.579 145.698" stroke="black" stroke-miterlimit="22.9256" stroke-linecap="round" stroke-linejoin="round"/>
<path d="M93.021 89.5531C87.9671 89.5531 86.201 93.5678 86.201 98.0526C86.201 102.637 87.9181 106.527 92.9468 106.527C98.0742 106.527 99.7423 102.587 99.7423 97.9536C99.7423 93.1959 97.8531 89.5531 93.021 89.5531ZM93.021 92.8982C94.5659 92.8982 94.8361 94.4594 94.8361 97.9784C94.8361 101.422 94.6149 103.157 92.9958 103.157C91.3523 103.157 91.0828 101.398 91.0828 97.9784C91.0828 94.2614 91.549 92.8982 93.021 92.8982V92.8982Z" fill="#898989"/>
<path d="M106.17 89.5531C103.029 89.5531 101.484 91.6594 101.484 94.3109C101.484 97.3838 103.201 99.0687 106.145 99.0687C109.089 99.0687 110.732 97.1108 110.732 94.3109C110.732 91.2882 108.991 89.5531 106.17 89.5531V89.5531ZM106.17 92.0066C106.93 92.0066 107.469 92.5022 107.469 94.3109C107.469 96.0206 106.979 96.6399 106.145 96.6399C105.286 96.6399 104.845 95.8968 104.845 94.3109C104.845 92.626 105.36 92.0066 106.17 92.0066ZM108.328 106.205L118.754 89.8508H116.178L105.777 106.205H108.328V106.205ZM118.484 96.9624C115.344 96.9624 113.799 99.0687 113.799 101.72C113.799 104.792 115.54 106.502 118.459 106.502C121.403 106.502 123.072 104.52 123.072 101.72C123.072 98.6968 121.329 96.9624 118.484 96.9624ZM118.484 99.4399C119.245 99.4399 119.784 99.9108 119.784 101.72C119.784 103.43 119.318 104.049 118.484 104.049C117.626 104.049 117.184 103.306 117.184 101.72C117.184 100.035 117.699 99.4399 118.484 99.4399Z" fill="#898989"/>
</svg>
