<?xml version="1.0" encoding="UTF-8"?>
<!DOCTYPE svg PUBLIC "-//W3C//DTD SVG 1.1//EN" "http://www.w3.org/Graphics/SVG/1.1/DTD/svg11.dtd">
<!-- Creator: CorelDRAW 2018 (64-Bit) -->
<svg xmlns="http://www.w3.org/2000/svg" xml:space="preserve" width="3000px" height="3000px" version="1.1" style="shape-rendering:geometricPrecision; text-rendering:geometricPrecision; image-rendering:optimizeQuality; fill-rule:evenodd; clip-rule:evenodd"
viewBox="0 0 3000 3000"
 xmlns:xlink="http://www.w3.org/1999/xlink">
 <defs>
  <style type="text/css">
   <![CDATA[
    .str1 {stroke:black;stroke-width:6;stroke-miterlimit:22.9256}
    .str2 {stroke:black;stroke-width:6;stroke-linecap:round;stroke-miterlimit:22.9256}
    .str3 {stroke:black;stroke-width:10;stroke-linecap:round;stroke-linejoin:round;stroke-miterlimit:22.9256}
    .str0 {stroke:black;stroke-width:6;stroke-linecap:round;stroke-linejoin:round;stroke-miterlimit:22.9256}
    .fil2 {fill:none}
    .fil1 {fill:#A8B9D5}
    .fil3 {fill:#E8A500}
    .fil0 {fill:#F1F6FA}
   ]]>
  </style>
 </defs>
 <g id="Слой_x0020_1">
  <metadata id="CorelCorpID_0Corel-Layer"/>
  <g id="_2291078776992">
   <g>
    <path class="fil0" d="M1850.59 2245.96c2.66,-1.46 5.53,-17.75 8,-20 18.41,-16.74 21.63,-30.09 2,-44 0.85,-0.36 29.7,-1.86 30.53,-2.25 2.92,2.66 7.49,4.28 13.9,3.81 21.57,-1.56 45.59,-25.4 53.48,-65.21 7.9,-39.8 15.16,-84.56 14.06,-172.61 -1.1,-88.04 -8.13,-238.51 -8.13,-238.51 0,0 -8.4,-141.41 -27.12,-215.32 -18.72,-73.91 -27.72,-68.91 -27.72,-68.91 0,0 -24,-34 -23,-64 1,-30 28.48,-53.85 28.48,-53.85 0,0 45.38,21.65 77.95,130.25 32.57,108.6 39.33,265.8 39.33,265.8 0,0 11.72,180.12 5.05,270.32 -6.66,90.19 -10.6,178.47 -48.21,226.97 -26.57,34.28 -61.84,54.02 -106.89,61.53 1.67,-4.68 -31.53,-9.53 -31.71,-14.02z"/>
    <path class="fil1" d="M1915.37 2181.13c0,0 21.59,-15.74 21.49,-15.84 -0.1,-0.1 6.42,41.67 -6.61,80.02l-25.35 8.7 7.07 -44.06 3.4 -28.82z"/>
    <path class="fil2 str0" d="M1912.59 1303.96c0,0 100,35 119,383 19,348 1,498 -78,546 -24.15,14.67 -48.38,23.26 -71.52,27.62m9.64 -81.15c1.7,1.66 3.99,2.91 6.88,3.53 14,3 61,-1 71,-135 10,-134 -4,-570 -60,-625"/>
    <g>
     <path class="fil0" d="M1804.68 2301.12c0,0 -11.4,7.84 -20.4,-3.16 -9,-11 16.99,-35.71 21.02,-42.26 4.03,-6.55 -2.09,-12.06 -2.09,-12.06 0,0 -39.93,-15.65 -63.43,-38.66 -23.5,-23.02 -12,-39.5 -12,-39.5 0,0 3.86,-6.59 7.74,-7.38 3.88,-0.79 7.55,-0.52 7.55,-0.52 0,0 -13.26,-22.11 -4.03,-33.37 9.24,-11.25 22.53,-3.06 22.53,-3.06l7.04 5.28c0,0 -3.99,-18.07 13.34,-22.27 17.33,-4.2 20.54,5.07 20.54,5.07 0,0 3.46,-5.74 13.62,-4.5 10.17,1.23 15.03,7.89 15.03,7.89 0,0 -1.43,53.04 -7.07,92.09 -5.64,39.06 -19.39,96.41 -19.39,96.41z"/>
     <path class="fil2 str1" d="M1804.92 2300.98c-4.99,3.21 -17.27,3.21 -20.64,-3.02 -13,-24 37,-41 18.93,-54.32"/>
     <path class="fil2 str1" d="M1803.21 2243.64c-29.21,-12.56 -53.4,-26.74 -66.55,-42.08 -16.54,-19.29 -12.87,-33.99 -4.6,-41.34 8.27,-7.35 24.22,-0.26 33.08,12.86 5.58,8.27 18.5,18.78 37.2,25.9"/>
     <path class="fil2 str1" d="M1743.07 2157.58c-9.79,-10.62 -12.57,-32.18 0.94,-37.79 21.27,-8.83 31.9,16.38 50.27,35.67 6.75,7.09 17.11,10.4 27.19,13.86m4.91 1.58c0.43,0.13 0.87,0.25 1.3,0.38"/>
     <path class="fil2 str1" d="M1768.61 2126.43c-2.2,-12.52 5.82,-21.59 15.02,-22.8 12.65,-1.67 19.94,12.56 30.04,26.34 3.46,4.71 9.53,6.4 16,9.85"/>
     <path class="fil2 str1" d="M1801.69 2108.54c2.68,-1.97 5.73,-3.28 8.72,-3.78 7.81,-1.3 14.25,2.48 20.93,9.69"/>
     <path class="fil2 str2" d="M1800.28 2214.96c0,0 -2.83,-28.63 27.58,-50.81"/>
    </g>
   </g>
   <g>
    <path class="fil3" d="M1093.8 1921.63c0,0 -23.26,-10.81 -3.24,-36.24 20.01,-25.43 88.05,-39.62 186.53,-36.02 98.48,3.59 177.48,31.59 185.48,56.59 8,25 0.36,33.27 -4.81,37.06 -5.17,3.78 -9.96,5.96 -9.96,5.96 0,0 3.23,23.32 2.5,40.15 -0.73,16.83 -9.72,27.76 -9.72,27.76 0,0 14.52,7.76 13.25,23.91 -1.26,16.16 -8.72,27.73 -25.39,35.7 -16.67,7.96 -28.71,11.83 -28.71,11.83l-7.07 -42.18c0,0 -20.63,-4.81 -33.63,-1.83 -13,2.99 -27.17,9.38 -27.17,9.38l4.34 39.97c0,0 -48.21,-5.36 -56.92,-23.53 -8.71,-18.18 -0.59,-30.66 -0.59,-30.66l4.92 -8.63 -30.75 -21.97c0,0 -43.29,53.08 -101.29,32.08 -58,-21 -60.62,-86.83 -60.62,-86.83l2.85 -32.5z"/>
    <path class="fil0" d="M1340.43 2120.89c-1,-7 -8.57,-67.19 -8.57,-67.19 0,0 19.01,-8.89 29.71,-9.74 10.7,-0.85 31.09,2.19 31.09,2.19 0,0 13.27,93.67 37.59,169.74 24.32,76.07 49.79,172.86 128.55,219.47 78.77,46.6 171.16,0.48 202.96,-43.96 31.81,-44.44 55.52,-119.2 60.73,-177.89 5.21,-58.69 12.9,-119.29 9.04,-259.8 -3.86,-140.5 -13.02,-128.59 -13.02,-128.59 0,0 105.47,-112.87 98.77,75.84 -2.17,61.04 7.01,141.22 4.24,196.68 -5.79,116.01 -19.48,218.81 -68.5,304.16 -72.45,126.16 -164.07,137.11 -216.76,139.13 -52.69,2.03 -156.53,-24.44 -226.11,-173.21 -24.98,-53.41 -35.06,-102.28 -45.35,-140.43 -18.36,-68.1 -24.37,-106.4 -24.37,-106.4z"/>
    <path class="fil1" d="M1334.3 2080.1c8.37,-10.13 34.46,-20.66 59.29,-21.97 -1.21,-7.61 -1.83,-11.97 -1.83,-11.97 0,0 -20.38,-3.04 -31.09,-2.19 -10.7,0.85 -29.71,9.74 -29.71,9.74 0,0 1.55,12.28 3.34,26.39z"/>
    <path class="fil1" d="M1828.61 1885.04l3.08 74.1c0,0 17.57,-2.18 39.57,5.82 22,8 49.14,9.76 49.14,9.76l-2.86 -84.14 -88.93 -5.54z"/>
    <path class="fil2 str2" d="M1331.86 2053.7c1.44,25.42 9.69,102.52 55.71,253.26 58,190 175,234 252,234 77,0 202,-45 257,-249 14.25,-52.86 36.71,-175 16.71,-463 -11.71,-168.61 -14.71,-43 -14.71,-43 0,0 -80,-112 -70,94 10,206 11,470 -99,542 -110,72 -221,24 -275,-130 -39.31,-112.1 -55.83,-204.07 -61.91,-245.81m-298.86 -124.52c-4.48,-2.51 -12.7,-8.67 -11.23,-19.67 10.41,-78.11 343.68,-64.81 380,4 7.69,14.58 4.53,36.15 -14.77,43.02m-187.23 50.98c-83,103 -197,11 -164,-88 0,0 40,-42 179,-28 139,14 165,36 165,36 0,0 22.95,67.98 0.01,96.93m-155.95 14.69l-31.77 -22.7m73.71 -2.92c0,0 -61,21 -51,56 6.27,21.93 34.51,29.69 60.63,31.71m63.53 -5.34c75.27,-20.43 73.33,-84.55 -14.16,-86.37m-64 61c0,0 9,-15 40,-19 31,-4 38,7 38,7"/>
   </g>
   <g>
    <path class="fil3" d="M621.51 1921.63c0,0 -23.26,-10.81 -3.24,-36.24 20.01,-25.43 88.05,-39.62 186.53,-36.02 98.48,3.59 177.48,31.59 185.48,56.59 8,25 0.36,33.27 -4.81,37.06 -5.17,3.78 -9.96,5.96 -9.96,5.96 0,0 3.23,23.32 2.5,40.15 -0.73,16.83 -9.72,27.76 -9.72,27.76 0,0 14.52,7.76 13.25,23.91 -1.26,16.16 -8.72,27.73 -25.39,35.7 -16.67,7.96 -28.71,11.83 -28.71,11.83l-7.07 -42.18c0,0 -20.63,-4.81 -33.63,-1.83 -13,2.99 -27.17,9.38 -27.17,9.38l4.34 39.97c0,0 -48.21,-5.36 -56.92,-23.53 -8.71,-18.18 -0.59,-30.66 -0.59,-30.66l4.92 -8.63 -30.75 -21.97c0,0 -43.29,53.08 -101.29,32.08 -58,-21 -60.62,-86.83 -60.62,-86.83l2.85 -32.5z"/>
    <path class="fil0" d="M868.14 2120.89c-1,-7 -8.57,-67.19 -8.57,-67.19 0,0 19.01,-8.89 29.71,-9.74 10.7,-0.85 31.09,2.19 31.09,2.19 0,0 13.27,93.67 37.59,169.74 24.32,76.07 49.79,172.86 128.55,219.47 78.77,46.6 171.15,0.48 202.96,-43.96 31.81,-44.44 49.83,-110.66 55.04,-169.35 5.21,-58.69 9.42,-115.92 5.56,-256.42l-1.83 -66.54c30.3,-1.94 63.39,2.47 93.04,19.87 4.71,2.76 9.28,5.41 13.71,7.95 -6.48,186.93 -2.35,349.68 -74.26,474.89 -72.45,126.16 -164.07,137.11 -216.76,139.13 -52.69,2.03 -156.53,-24.44 -226.11,-173.21 -24.98,-53.41 -35.07,-102.28 -45.35,-140.43 -18.36,-68.1 -24.37,-106.4 -24.37,-106.4z"/>
    <path class="fil1" d="M862.9 2080.09c8.38,-10.13 34.47,-20.66 59.3,-21.97 -1.22,-7.61 -1.83,-11.97 -1.83,-11.97 0,0 -20.39,-3.04 -31.09,-2.19 -10.7,0.85 -29.71,9.74 -29.71,9.74 0,0 1.54,12.28 3.33,26.39z"/>
    <path class="fil1" d="M1332.46 2292.63c0,0 40.82,-4.67 76.82,-41.67 36,-37 34.1,-72.79 34.1,-72.79l6.15 -86.53c0,0 -1.93,-1.13 -13.58,50.98 -11.65,52.11 -37.71,88.57 -54.31,99.58 -16.59,11.01 -43.38,24.43 -43.38,24.43l-5.8 26z"/>
    <path class="fil1" d="M1350.06 1898.98l1.65 39.5c0,0 17.57,-2.18 39.57,5.82 22,8 54.14,10.83 54.14,10.83l-1.17 -34.43 -2.97 -1.74c-29.06,-17.05 -61.42,-21.63 -91.22,-19.98z"/>
    <path class="fil2 str2" d="M859.57 2053.7c1.44,25.42 9.69,102.52 55.71,253.26 58,190 175,234 252,234 77,0 202,-45 257,-249 31.54,-116.98 27.56,-266.16 18.43,-372.16m-95.51 -20.64c9.64,202.89 16.69,453.02 -89.92,522.8 -110,72 -221,24 -275,-130 -39.31,-112.1 -55.83,-204.07 -61.91,-245.81m-298.86 -124.52c-4.48,-2.51 -12.7,-8.67 -11.23,-19.67 10.41,-78.11 343.68,-64.81 380,4 7.69,14.58 4.53,36.15 -14.77,43.02m-187.23 50.98c-83,103 -197,11 -164,-88 0,0 40,-42 179,-28 139,14 165,36 165,36 0,0 22.95,67.98 0.01,96.93m-155.95 14.69l-31.77 -22.7m73.71 -2.92c0,0 -61,21 -51,56 6.26,21.93 34.51,29.69 60.63,31.71m63.53 -5.34c75.27,-20.43 73.33,-84.55 -14.16,-86.37m-64 61c0,0 9,-15 40,-19 31,-4 38,7 38,7"/>
   </g>
   <path class="fil0 str0" d="M1110.28 1935.96c0,0 -38,-501 8,-875 46,-374 206,-602 518,-602 312,0 440,352 434,664 -6,312 12,774 12,774 0,0 -28,52 -93,52 -65,0 -104,-33 -171,-33 -67,0 -122,62 -193,62 -71,0 -109,-15 -184,-59 -75,-44 -172,-5 -190,10 -18,15 -115,51 -141,7z"/>
   <path class="fil0" d="M1557.28 849.96c27.61,0 45,49.92 45,111.5 0,61.58 -22.39,111.5 -50,111.5 -27.62,0 -50,-49.92 -50,-111.5 0,-61.58 27.38,-111.5 55,-111.5z"/>
   <path class="fil0" d="M1932.28 849.96c27.61,0 55,49.92 55,111.5 0,61.58 -22.39,111.5 -50,111.5 -27.62,0 -50,-49.92 -50,-111.5 0,-61.58 17.38,-111.5 45,-111.5z"/>
   <path class="fil1" d="M1543.26 854.15c0,0 39.76,-26.23 54.75,57.31 14.99,83.54 -9.96,136.32 -23.99,150.43 -14.02,14.11 -32.43,8.52 -32.43,8.52 0,0 26.72,-28.45 30.08,-68.7 3.36,-40.25 2.47,-94.09 -9.1,-119.9 -11.57,-25.81 -19.31,-27.66 -19.31,-27.66z"/>
   <path class="fil1" d="M1928.18 855.65c0,0 39.75,-26.23 54.74,57.31 14.99,83.54 -9.96,136.32 -23.99,150.43 -14.02,14.11 -32.43,8.52 -32.43,8.52 0,0 26.73,-28.45 30.08,-68.7 3.36,-40.25 2.47,-94.09 -9.1,-119.9 -11.57,-25.81 -19.3,-27.66 -19.3,-27.66z"/>
   <path class="fil2 str3" d="M1738.16 1085.79c8.26,-8.79 19.45,-13.74 31.12,-13.74 11.67,0 22.86,4.95 31.11,13.74"/>
   <g>
    <path class="fil2" d="M1151.33 2139.51c-0.94,-6.74 -0.39,-18.7 13.27,-24.78 19.68,-8.77 27.8,11.65 27.8,11.65l4.47 -9.41c0,0 12.25,-13.18 24.83,-0.09 12.58,13.08 14.62,24.87 23.3,35.22 8.69,10.35 18.2,17.62 18.2,17.62 0,0 1.08,3.46 18.58,-12.65 17.5,-16.11 36.51,-14.72 42.51,-5.42 5.99,9.31 1.14,17.79 -12.44,23.55 -13.57,5.76 -12.71,27.89 8.86,26.32 21.57,-1.56 45.59,-25.4 53.48,-65.21 7.9,-39.8 15.17,-84.56 14.06,-172.61 -1.1,-88.04 -8.13,-238.51 -8.13,-238.51 0,0 -8.4,-141.41 -27.12,-215.32 -18.72,-73.91 -27.72,-68.91 -27.72,-68.91 0,0 -24,-34 -23,-64 1,-30 28.48,-53.85 28.48,-53.85 0,0 45.38,21.65 77.95,130.25 32.57,108.6 39.33,265.8 39.33,265.8 0,0 11.72,180.12 5.05,270.32 -6.66,90.19 -10.59,178.47 -48.2,226.97 -37.61,48.51 -92.61,67.91 -168.11,64.71 -27.62,-1.17 -46.26,-8.63 -62.54,-15.87 -28.23,-12.55 -43.43,-27.21 -43.43,-27.21 -25.53,-24.12 -29.58,-33.3 -28.05,-46.21 1.52,-12.91 17.08,-16.33 17.08,-16.33 0,0 -5.68,-8.62 -5.06,-19.58 0.23,-4.19 1.38,-12.5 4,-15.5 4.23,-4.84 14.01,-10.01 23.38,-7.36 9.53,2.7 11.15,6.48 11.03,8.91"/>
    <path class="fil0" d="M1130.81 2238.08c-25.53,-24.12 -29.58,-33.3 -28.05,-46.21 1.52,-12.91 17.08,-16.33 17.08,-16.33 0,0 -5.68,-8.62 -5.06,-19.58 0.23,-4.19 1.38,-12.5 4,-15.5 4.23,-4.84 14.01,-10.01 23.38,-7.36 15.18,4.3 10.29,11.33 10.29,11.33 0,0 -7.53,-20.94 12.15,-29.7 19.68,-8.77 27.8,11.65 27.8,11.65l4.47 -9.41c0,0 12.25,-13.18 24.83,-0.09 12.58,13.08 14.62,24.87 23.3,35.22 8.69,10.35 18.2,17.62 18.2,17.62 0,0 1.08,3.46 18.58,-12.65 17.5,-16.11 36.51,-14.72 42.51,-5.42 5.99,9.31 1.14,17.79 -12.44,23.55 -13.57,5.76 -12.71,27.89 8.86,26.32 21.57,-1.56 45.59,-25.4 53.48,-65.21 7.9,-39.8 15.17,-84.56 14.06,-172.61 -1.1,-88.04 -8.13,-238.51 -8.13,-238.51 0,0 -8.4,-141.41 -27.12,-215.32 -18.72,-73.91 -27.72,-68.91 -27.72,-68.91 0,0 -24,-34 -23,-64 1,-30 28.48,-53.85 28.48,-53.85 0,0 45.38,21.65 77.95,130.25 32.57,108.6 39.33,265.8 39.33,265.8 0,0 11.72,180.12 5.05,270.32 -6.66,90.19 -10.59,178.47 -48.2,226.97 -37.61,48.51 -92.61,67.91 -168.11,64.71 -27.62,-1.17 -46.26,-8.63 -62.54,-15.87 -28.23,-12.55 -43.43,-27.21 -43.43,-27.21z"/>
    <path class="fil2 str0" d="M1328.28 1321.96c0,0 100,35 119,383 19,348 1,498 -78,546 -79,48 -159,31 -198,13 -39,-18 -67,-48 -69,-68 -2,-20 23,-30 42,-8 19,22 49,35 49,35 0,0 11,-34 60,-34 49,0 58,26 58,26m-191.44 -39.42c-19.93,-32.15 17.74,-54.02 30.8,-36.94 13,16.99 28.01,43.63 49.64,47.36m-48.17 -45.41c-0.56,-11.71 2.21,-25.68 20.17,-27.59 15.01,-1.6 18.99,12.84 29.13,28.88 6.26,9.89 14.87,20.4 29.87,28.12m-37.74 28c0,0 0,-10 14,-15m17.67 -8.61c0,0 2.6,-6.06 12.39,-5.44m-43.88 -40.28c0.09,-6.88 2.23,-13.74 9.56,-16.67 10,-4 17,-1 30,22 13,23 27,37 32,36m-18 13c0,0 6,-10 18,-13 12,-3 21,-27 46,-25 12.57,1.01 16.04,10.05 15.35,16.33 -0.67,6.22 -5.39,9.69 -12.35,12.67 -14,6 -14,24 0,27 14,3 61,-1 71,-135 10,-134 -4,-570 -60,-625"/>
   </g>
   <path class="fil2 str3" d="M1543.26 854.15c19.82,13.23 31.77,56.26 31.77,107.31 0,51.05 -15.38,94.08 -36.38,107.31"/>
   <path class="fil2 str3" d="M1919.04 854.15c22.17,13.23 40.99,56.26 40.99,107.31 0,51.05 -15.38,94.08 -36.37,107.31"/>
   <path class="fil2 str3" d="M1557.28 849.96c27.61,0 45,49.92 45,111.5 0,61.58 -22.39,111.5 -50,111.5 -27.62,0 -50,-49.92 -50,-111.5 0,-61.58 27.38,-111.5 55,-111.5z"/>
   <path class="fil2 str3" d="M1932.28 849.96c27.61,0 55,49.92 55,111.5 0,61.58 -22.39,111.5 -50,111.5 -27.62,0 -50,-49.92 -50,-111.5 0,-61.58 17.38,-111.5 45,-111.5z"/>
  </g>
 </g>
</svg>
