<svg width="1962" height="442" viewBox="0 0 1962 442" fill="none" xmlns="http://www.w3.org/2000/svg">
<path fill-rule="evenodd" clip-rule="evenodd" d="M220.43 0.839844H1741.57C1862.65 0.839844 1961.73 99.9199 1961.73 221V221.01C1961.73 342.09 1862.65 441.17 1741.57 441.17H220.43C99.35 441.17 0.27002 342.09 0.27002 221.01V221C0.27002 99.9199 99.35 0.839844 220.43 0.839844V0.839844Z" fill="#39E27D"/>
<path d="M756.45 309.09H801.17V251.48H868.27V217.59H801.17V187.32H872.79V153.44H756.45V309.09Z" fill="black"/>
<path d="M973.77 278.81L983.25 309.09H1030.92L979.87 153.44H920.91L871.66 309.09H915.94L924.97 278.81H973.77ZM932.65 244.93C938.75 222.56 944.85 200.43 948.47 183.71H949.14C952.53 198.84 958.63 220.53 965.86 244.93H932.65Z" fill="black"/>
<path d="M1117.89 150.5C1065.71 150.5 1037.92 186.64 1037.92 231.37C1037.92 275.43 1063.23 312.02 1115.64 312.02C1123.77 312.02 1131.22 311.12 1138 309.54L1182.28 339.58L1205.55 312.25L1173.24 290.56C1187.93 275.65 1195.38 254.42 1195.38 231.15C1195.38 184.61 1166.92 150.5 1117.89 150.5V150.5ZM1116.54 183.48C1140.26 183.48 1148.62 203.14 1148.62 231.6C1148.62 258.03 1140.71 279.04 1116.99 279.04C1094.4 279.04 1084.91 259.16 1084.91 230.7C1084.91 201.78 1094.4 183.48 1116.54 183.48Z" fill="black"/>
</svg>
