<svg width="185" height="200" viewBox="0 0 185 200" fill="none" xmlns="http://www.w3.org/2000/svg">
<path d="M175 0L175 200" stroke="#FB9142" stroke-width="5"/>
<circle cx="175" cy="100" r="10" fill="#FB9142"/>
<path fill-rule="evenodd" clip-rule="evenodd" d="M52.5813 115.166C44.4825 115.029 39.6042 123.395 39.1741 126.853C39.1741 126.853 26.9239 130.084 30.735 141.221C34.5462 152.357 48.0215 151.257 48.0215 151.257C48.0215 151.257 51.5604 157.307 68.7107 159.781C85.861 162.256 83.1388 156.894 97.9751 159.369C112.812 161.844 117.439 157.582 132.412 151.257C147.384 144.933 147.384 132.421 144.526 127.609C141.668 122.797 134.726 121.697 131.051 123.485C131.051 123.485 127.512 115.51 114.037 113.035C100.561 110.561 79.5998 104.374 52.5813 115.166V115.166Z" fill="#00E377"/>
<path fill-rule="evenodd" clip-rule="evenodd" d="M48.4978 135.584L59.7272 141.771L114.173 128.847C114.901 128.673 115.498 128.227 115.534 127.472L118.001 76.4539C118.914 57.5712 104.942 40.4924 86.2264 40.4924C76.1527 40.4924 65.6576 43.5529 58.56 50.2115C51.7462 56.604 48.1255 66.387 48.0391 76.4539L47.5464 133.342C47.5396 134.097 47.8411 135.221 48.4978 135.584V135.584Z" fill="#65625C"/>
<path fill-rule="evenodd" clip-rule="evenodd" d="M63.2662 142.32H123.701C126.321 142.32 128.465 140.155 128.465 137.508V75.3633C128.465 55.9293 112.723 40.0288 93.4834 40.0288C74.2437 40.0288 58.5022 55.9293 58.5022 75.3633V137.508C58.5022 140.155 60.646 142.32 63.2662 142.32V142.32Z" fill="#9D9D9D" stroke="black" stroke-miterlimit="22.9256"/>
<path d="M92.5306 40.0291C69.6717 39.4104 47.6301 48.5533 47.6301 78.7341V133.342C47.6301 137.233 59.193 140.96 60.9869 141.73" stroke="black" stroke-miterlimit="22.9256"/>
<path fill-rule="evenodd" clip-rule="evenodd" d="M50.5226 140.062C50.5226 140.062 54.606 132.156 50.7267 130.781C46.8475 129.406 45.9628 137.106 45.9628 137.106C45.9628 137.106 43.7169 133.187 42.219 134.906C40.7217 136.624 42.5599 138.893 42.5599 138.893L50.5226 140.062Z" fill="#00E377"/>
<path fill-rule="evenodd" clip-rule="evenodd" d="M81.6925 150.373C83.6655 149.754 84.7551 147.073 83.053 146.18C81.3515 145.286 79.6508 147.142 79.6508 147.142C79.6508 147.142 87.953 127.413 81.9647 126.863C75.9757 126.313 75.907 136.418 75.907 136.418C75.907 136.418 73.5937 131.675 71.484 134.768C69.3735 137.862 74.1382 145.492 74.1382 145.492L81.6925 150.373Z" fill="#00E377"/>
<path fill-rule="evenodd" clip-rule="evenodd" d="M124.091 147.348C125.657 147.83 127.018 145.767 125.52 144.736C124.023 143.705 122.595 145.561 122.595 145.561C122.595 145.561 122.935 130.369 117.558 132.912C112.181 135.456 118.579 145.699 118.579 145.699L124.091 147.348Z" fill="#00E377"/>
<path d="M50.5226 140.062C50.5226 140.062 54.606 132.156 50.7267 130.781C46.8475 129.406 45.9628 137.106 45.9628 137.106C45.9628 137.106 43.7169 133.187 42.219 134.906C40.7217 136.624 42.5599 138.893 42.5599 138.893" stroke="black" stroke-miterlimit="22.9256" stroke-linecap="round" stroke-linejoin="round"/>
<path d="M81.6925 150.373C83.6655 149.754 84.7551 147.073 83.053 146.18C81.3515 145.286 79.6508 147.142 79.6508 147.142C79.6508 147.142 87.953 127.413 81.9647 126.863C75.9757 126.313 75.907 136.418 75.907 136.418C75.907 136.418 73.5937 131.675 71.484 134.768C69.3735 137.862 74.1382 145.492 74.1382 145.492" stroke="black" stroke-miterlimit="22.9256" stroke-linecap="round" stroke-linejoin="round"/>
<path d="M124.091 147.348C125.657 147.83 127.018 145.767 125.52 144.736C124.023 143.705 122.595 145.561 122.595 145.561C122.595 145.561 122.935 130.369 117.558 132.912C112.181 135.456 118.579 145.699 118.579 145.699" stroke="black" stroke-miterlimit="22.9256" stroke-linecap="round" stroke-linejoin="round"/>
<path d="M69.688 89.8755V93.4935H76.998C74.7902 96.1443 71.9447 101.546 71.3316 106.205H76.3603C76.998 101.472 79.3289 96.5904 81.7817 93.0721V89.8755H69.688V89.8755ZM95.7891 89.8755H84.8483C84.6026 92.2046 83.8669 97.2346 83.4742 99.2172L87.6448 99.6138C87.9143 98.8453 88.3805 98.3249 89.5333 98.3249C90.9564 98.3249 91.4226 99.2419 91.4226 100.754C91.4226 102.216 90.8584 103.256 89.583 103.256C88.4791 103.256 87.9395 102.587 87.7183 101.646H83.1312C83.4497 104.52 85.682 106.527 89.6565 106.527C94.1945 106.527 96.2553 103.826 96.2553 100.431C96.2553 97.3838 94.4151 95.054 91.0544 95.054C89.7545 95.054 88.8467 95.3517 88.2335 95.7731C88.307 95.3517 88.5281 93.9885 88.5771 93.4935H95.1759L95.7891 89.8755V89.8755ZM102.241 89.5531C99.1008 89.5531 97.5552 91.6594 97.5552 94.3109C97.5552 97.3838 99.2723 99.0687 102.216 99.0687C105.16 99.0687 106.803 97.1108 106.803 94.3109C106.803 91.2882 105.062 89.5531 102.241 89.5531V89.5531ZM102.241 92.0066C103.001 92.0066 103.541 92.5022 103.541 94.3109C103.541 96.0206 103.05 96.6399 102.216 96.6399C101.358 96.6399 100.916 95.8968 100.916 94.3109C100.916 92.626 101.431 92.0066 102.241 92.0066ZM104.4 106.205L114.825 89.8508H112.249L101.848 106.205H104.4V106.205ZM114.555 96.9624C111.416 96.9624 109.87 99.0687 109.87 101.72C109.87 104.792 111.612 106.502 114.531 106.502C117.475 106.502 119.143 104.52 119.143 101.72C119.143 98.6968 117.401 96.9624 114.555 96.9624ZM114.555 99.4399C115.316 99.4399 115.856 99.9108 115.856 101.72C115.856 103.43 115.389 104.049 114.555 104.049C113.697 104.049 113.255 103.306 113.255 101.72C113.255 100.035 113.77 99.4399 114.555 99.4399Z" fill="#898989"/>
</svg>
