<svg width="185" height="200" viewBox="0 0 185 200" fill="none" xmlns="http://www.w3.org/2000/svg">
<path d="M175 0V200" stroke="#FB9142" stroke-width="5"/>
<circle cx="175" cy="100" r="10" fill="#FB9142"/>
<path fill-rule="evenodd" clip-rule="evenodd" d="M52.5813 115.166C44.4825 115.029 39.6042 123.395 39.1741 126.853C39.1741 126.853 26.9239 130.084 30.735 141.221C34.5462 152.357 48.0215 151.257 48.0215 151.257C48.0215 151.257 51.5604 157.307 68.7107 159.781C85.861 162.256 83.1388 156.894 97.9751 159.369C112.812 161.844 117.439 157.582 132.412 151.257C147.384 144.933 147.384 132.421 144.526 127.609C141.668 122.797 134.726 121.697 131.051 123.485C131.051 123.485 127.512 115.51 114.037 113.035C100.561 110.561 79.5998 104.374 52.5813 115.166V115.166Z" fill="#00E377"/>
<path fill-rule="evenodd" clip-rule="evenodd" d="M48.4978 135.584L59.7272 141.771L114.173 128.847C114.901 128.673 115.498 128.227 115.534 127.472L118.001 76.4539C118.914 57.5712 104.942 40.4924 86.2264 40.4924C76.1527 40.4924 65.6576 43.5529 58.56 50.2115C51.7462 56.604 48.1255 66.387 48.0391 76.4539L47.5464 133.342C47.5396 134.097 47.8411 135.221 48.4978 135.584V135.584Z" fill="#65625C"/>
<path fill-rule="evenodd" clip-rule="evenodd" d="M63.2662 142.32H123.701C126.321 142.32 128.465 140.155 128.465 137.508V75.3633C128.465 55.9293 112.723 40.0288 93.4834 40.0288C74.2437 40.0288 58.5022 55.9293 58.5022 75.3633V137.508C58.5022 140.155 60.646 142.32 63.2662 142.32V142.32Z" fill="#9D9D9D" stroke="black" stroke-miterlimit="22.9256"/>
<path d="M92.5306 40.0291C69.6717 39.4104 47.6301 48.5533 47.6301 78.7341V133.342C47.6301 137.233 59.193 140.96 60.9869 141.73" stroke="black" stroke-miterlimit="22.9256"/>
<path fill-rule="evenodd" clip-rule="evenodd" d="M50.5226 140.062C50.5226 140.062 54.606 132.156 50.7267 130.781C46.8475 129.406 45.9628 137.106 45.9628 137.106C45.9628 137.106 43.7169 133.187 42.219 134.906C40.7217 136.624 42.5599 138.893 42.5599 138.893L50.5226 140.062Z" fill="#00E377"/>
<path fill-rule="evenodd" clip-rule="evenodd" d="M81.6925 150.373C83.6655 149.754 84.7551 147.073 83.053 146.18C81.3515 145.286 79.6508 147.142 79.6508 147.142C79.6508 147.142 87.953 127.413 81.9647 126.863C75.9757 126.313 75.907 136.418 75.907 136.418C75.907 136.418 73.5937 131.675 71.484 134.768C69.3735 137.862 74.1382 145.492 74.1382 145.492L81.6925 150.373Z" fill="#00E377"/>
<path fill-rule="evenodd" clip-rule="evenodd" d="M124.091 147.348C125.657 147.83 127.018 145.767 125.52 144.736C124.023 143.705 122.595 145.561 122.595 145.561C122.595 145.561 122.935 130.369 117.558 132.912C112.181 135.456 118.579 145.699 118.579 145.699L124.091 147.348Z" fill="#00E377"/>
<path d="M50.5226 140.062C50.5226 140.062 54.606 132.156 50.7267 130.781C46.8475 129.406 45.9628 137.106 45.9628 137.106C45.9628 137.106 43.7169 133.187 42.219 134.906C40.7217 136.624 42.5599 138.893 42.5599 138.893" stroke="black" stroke-miterlimit="22.9256" stroke-linecap="round" stroke-linejoin="round"/>
<path d="M81.6925 150.373C83.6655 149.754 84.7551 147.073 83.053 146.18C81.3515 145.286 79.6508 147.142 79.6508 147.142C79.6508 147.142 87.953 127.413 81.9647 126.863C75.9757 126.313 75.907 136.418 75.907 136.418C75.907 136.418 73.5937 131.675 71.484 134.768C69.3735 137.862 74.1382 145.492 74.1382 145.492" stroke="black" stroke-miterlimit="22.9256" stroke-linecap="round" stroke-linejoin="round"/>
<path d="M124.091 147.348C125.657 147.83 127.018 145.767 125.52 144.736C124.023 143.705 122.595 145.561 122.595 145.561C122.595 145.561 122.935 130.369 117.558 132.912C112.181 135.456 118.579 145.699 118.579 145.699" stroke="black" stroke-miterlimit="22.9256" stroke-linecap="round" stroke-linejoin="round"/>
<path d="M81.794 106.205L82.3582 102.612H75.2442C75.5389 102.017 76.2991 101.249 77.9916 100.109C80.9848 98.1269 81.8675 96.9129 81.8675 94.6828C81.8675 92.0561 80.2974 89.5531 75.7349 89.5531C71.0247 89.5531 69.5288 92.4775 69.3811 95.0293H73.7721C73.8953 93.6915 74.3118 92.8487 75.5389 92.8487C76.5693 92.8487 77.0593 93.4688 77.0593 94.6086C77.0593 95.8226 76.4461 96.343 74.1158 98.0279C71.0744 100.233 69.5288 102.414 69.5288 105.784V106.205H81.794ZM96.4391 89.8755H85.4983C85.2533 92.2046 84.5169 97.2346 84.1242 99.2172L88.2948 99.6138C88.5649 98.8453 89.0311 98.3249 90.184 98.3249C91.6064 98.3249 92.0726 99.2419 92.0726 100.754C92.0726 102.216 91.5084 103.256 90.233 103.256C89.1291 103.256 88.5894 102.587 88.3683 101.646H83.7812C84.0997 104.52 86.3327 106.527 90.3065 106.527C94.8445 106.527 96.9053 103.826 96.9053 100.431C96.9053 97.3838 95.0657 95.054 91.7044 95.054C90.4045 95.054 89.4966 95.3517 88.8834 95.7731C88.957 95.3517 89.1781 93.9885 89.2271 93.4935H95.8259L96.4391 89.8755V89.8755ZM102.891 89.5531C99.7508 89.5531 98.2052 91.6594 98.2052 94.3109C98.2052 97.3837 99.9223 99.0687 102.866 99.0687C105.81 99.0687 107.453 97.1108 107.453 94.3109C107.453 91.2882 105.712 89.5531 102.891 89.5531V89.5531ZM102.891 92.0066C103.651 92.0066 104.191 92.5022 104.191 94.3109C104.191 96.0206 103.7 96.6399 102.866 96.6399C102.008 96.6399 101.566 95.8968 101.566 94.3109C101.566 92.626 102.081 92.0066 102.891 92.0066ZM105.05 106.205L115.475 89.8508H112.899L102.498 106.205H105.05V106.205ZM115.206 96.9624C112.066 96.9624 110.52 99.0687 110.52 101.72C110.52 104.792 112.262 106.502 115.181 106.502C118.125 106.502 119.793 104.52 119.793 101.72C119.793 98.6968 118.051 96.9624 115.206 96.9624ZM115.206 99.4399C115.966 99.4399 116.506 99.9108 116.506 101.72C116.506 103.43 116.039 104.049 115.206 104.049C114.347 104.049 113.905 103.306 113.905 101.72C113.905 100.035 114.42 99.4399 115.206 99.4399Z" fill="#898989"/>
</svg>
