<svg width="1962" height="442" viewBox="0 0 1962 442" fill="none" xmlns="http://www.w3.org/2000/svg">
<path fill-rule="evenodd" clip-rule="evenodd" d="M220.43 0.830078H1741.57C1862.65 0.830078 1961.73 99.9101 1961.73 220.99V221C1961.73 342.08 1862.65 441.16 1741.57 441.16H220.43C99.35 441.16 0.27002 342.08 0.27002 221V220.99C0.27002 99.9101 99.35 0.830078 220.43 0.830078V0.830078Z" fill="#FC9143"/>
<path d="M462.31 250.35C482.42 250.35 485.81 257.58 485.81 271.13V275.2C485.81 291.01 486.49 302.31 488.97 309.09H532.35C530.76 302.31 530.31 289.88 530.31 280.17V273.62C530.31 247.19 519.92 236.8 510.21 233.41C520.82 229.12 533.47 218.05 533.47 196.59C533.47 173.09 515.85 153.44 479.03 153.44H402V309.09H446.27V250.35H462.31ZM446.27 185.29H467.51C481.52 185.29 488.07 191.39 488.07 201.78C488.07 212.17 482.65 218.5 467.51 218.5H446.27V185.29Z" fill="black"/>
<path d="M631.97 150.5C579.79 150.5 552 186.65 552 231.37C552 275.43 577.3 312.02 629.71 312.02C683.02 312.02 709.46 275.2 709.46 231.15C709.46 184.61 680.99 150.5 631.97 150.5ZM630.61 183.48C654.33 183.48 662.69 203.14 662.69 231.6C662.69 258.03 654.79 279.04 631.07 279.04C608.48 279.04 598.99 259.16 598.99 230.7C598.99 201.78 608.48 183.48 630.61 183.48Z" fill="black"/>
<path d="M819.02 278.81L828.51 309.09H876.17L825.12 153.44H766.16L716.91 309.09H761.19L770.23 278.81H819.02ZM777.91 244.93C784.01 222.56 790.1 200.43 793.72 183.71H794.4C797.79 198.84 803.89 220.53 811.11 244.93H777.91Z" fill="black"/>
<path d="M892.44 309.09H958.63C1009.69 309.09 1037.47 274.52 1037.47 229.57C1037.47 184.84 1008.78 153.44 959.31 153.44H892.44V309.09V309.09ZM938.07 186.42H956.15C981 186.42 990.48 203.81 990.48 229.57C990.48 258.71 980.32 276.1 955.69 276.1H938.07V186.42Z" fill="black"/>
<path d="M1192.67 309.09H1236.5V153.44H1172.79C1163.76 187.32 1153.36 228.66 1149.3 253.74H1148.62C1145.01 230.7 1136.19 185.06 1128.51 153.44H1062.77V309.09H1103.44V259.61C1103.44 232.96 1102.53 202.46 1101.18 184.16H1102.76C1108.63 218.72 1119.03 265.04 1127.84 309.09H1164.43C1175.73 263.68 1186.35 217.59 1192.67 184.16H1194.03C1193.35 202.68 1192.67 234.09 1192.67 258.26V309.09V309.09Z" fill="black"/>
<path d="M1355.78 278.81L1365.26 309.09H1412.93L1361.88 153.44H1302.91L1253.67 309.09H1297.94L1306.98 278.81H1355.78ZM1314.66 244.93C1320.76 222.56 1326.86 200.43 1330.47 183.71H1331.15C1334.54 198.84 1340.64 220.53 1347.87 244.93H1314.66Z" fill="black"/>
<path d="M1429.2 309.09H1474.15V254.42H1500.36C1533.11 254.42 1560 238.38 1560 203.36C1560 173.09 1536.5 153.44 1501.26 153.44H1429.2V309.09ZM1474.15 185.51H1492.9C1505.55 185.51 1514.82 190.71 1514.82 204.04C1514.82 216.92 1505.78 222.34 1492.9 222.34H1474.15V185.51Z" fill="black"/>
</svg>
