<svg width="2731" height="442" viewBox="0 0 2731 442" fill="none" xmlns="http://www.w3.org/2000/svg">
<path fill-rule="evenodd" clip-rule="evenodd" d="M221.16 0.839844H2510.83C2631.93 0.839844 2731 99.9199 2731 221V221.01C2731 342.09 2631.93 441.17 2510.83 441.17H221.16C100.06 441.17 0.98999 342.09 0.98999 221.01V221C0.98999 99.9199 100.06 0.839844 221.16 0.839844V0.839844Z" fill="#39E27D"/>
<path d="M298.36 266.35C301.75 296.4 324.57 316.5 367.71 316.5C413.35 316.5 435.94 296.17 435.94 267.03C435.94 244.89 426.23 227.49 378.33 215.52C354.39 209.65 348.74 206.48 348.74 197.9C348.74 189.54 355.06 185.7 365.46 185.7C381.72 185.7 386.01 194.06 387.14 202.42H431.2C429.16 178.02 410.64 154.98 365.68 154.98C322.31 154.98 303.11 176.89 303.11 203.1C303.11 224.11 312.37 240.82 358.23 251.89C382.85 257.77 389.63 261.61 389.63 271.77C389.63 280.81 383.3 285.78 369.52 285.78C354.84 285.78 345.35 279.9 342.64 266.35H298.36V266.35Z" fill="black"/>
<path d="M587.75 313.56H631.57V157.91H567.87C558.83 191.8 548.44 233.14 544.37 258.22H543.7C540.08 235.17 531.27 189.54 523.59 157.91H457.85V313.56H498.51V264.09C498.51 237.43 497.61 206.94 496.26 188.64H497.84C503.71 223.2 514.1 269.51 522.91 313.56H559.51C570.81 268.16 581.42 222.07 587.75 188.64H589.1C588.43 207.16 587.75 238.56 587.75 262.74V313.56V313.56Z" fill="black"/>
<path d="M750.85 283.29L760.34 313.56H808.01L756.95 157.91H697.99L648.74 313.56H693.02L702.06 283.29H750.85V283.29ZM709.74 249.41C715.84 227.04 721.94 204.9 725.55 188.19H726.23C729.62 203.32 735.72 225.01 742.95 249.41H709.74V249.41Z" fill="black"/>
<path d="M884.59 254.83C904.7 254.83 908.08 262.06 908.08 275.61V279.68C908.08 295.49 908.76 306.79 911.25 313.56H954.62C953.04 306.79 952.59 294.36 952.59 284.65V278.1C952.59 251.67 942.2 241.27 932.48 237.89C943.1 233.59 955.75 222.52 955.75 201.06C955.75 177.57 938.13 157.91 901.31 157.91H824.27V313.56H868.55V254.83H884.59V254.83ZM868.55 189.77H889.79C903.79 189.77 910.34 195.87 910.34 206.26C910.34 216.65 904.92 222.98 889.79 222.98H868.55V189.77V189.77Z" fill="black"/>
<path d="M1014.26 313.56H1059.89V191.8H1103.95V157.91H969.76V191.8H1014.26V313.56Z" fill="black"/>
<path d="M1268.41 262.28C1266.37 271.09 1261.4 284.42 1243.1 284.42C1219.16 284.42 1212.83 260.02 1212.83 235.4C1212.83 208.07 1220.51 187.06 1242.65 187.06C1259.6 187.06 1265.92 197.45 1268.18 208.52H1313.36C1310.2 181.63 1289.41 154.98 1243.78 154.98C1190.24 154.98 1165.84 192.93 1165.84 236.98C1165.84 282.16 1190.47 316.5 1241.52 316.5C1284.22 316.5 1307.94 294.81 1313.81 262.28H1268.41V262.28Z" fill="black"/>
<path d="M1411.18 154.98C1358.99 154.98 1331.21 191.12 1331.21 235.85C1331.21 279.9 1356.51 316.5 1408.92 316.5C1462.23 316.5 1488.67 279.68 1488.67 235.63C1488.67 189.09 1460.2 154.98 1411.18 154.98ZM1409.82 187.96C1433.54 187.96 1441.9 207.61 1441.9 236.08C1441.9 262.51 1434 283.52 1410.28 283.52C1387.69 283.52 1378.2 263.64 1378.2 235.17C1378.2 206.26 1387.69 187.96 1409.82 187.96Z" fill="black"/>
<path d="M1555.53 313.56V278.55C1555.53 251.21 1555.31 221.17 1553.95 206.48H1554.4C1561.86 227.04 1590.1 285.33 1603.2 313.56H1655.16V157.91H1613.59V191.12C1613.59 215.97 1614.04 243.31 1615.85 259.57H1614.95C1608.4 240.37 1584.68 192.93 1568.41 157.91H1513.74V313.56H1555.53Z" fill="black"/>
<path d="M1719.99 313.56H1765.63V191.8H1809.68V157.91H1675.49V191.8H1719.99V313.56Z" fill="black"/>
<path d="M1888.52 254.83C1908.63 254.83 1912.01 262.06 1912.01 275.61V279.68C1912.01 295.49 1912.69 306.79 1915.18 313.56H1958.55C1956.97 306.79 1956.52 294.36 1956.52 284.65V278.1C1956.52 251.67 1946.13 241.27 1936.41 237.89C1947.03 233.59 1959.68 222.52 1959.68 201.06C1959.68 177.57 1942.06 157.91 1905.24 157.91H1828.2V313.56H1872.48V254.83H1888.52V254.83ZM1872.48 189.77H1893.72C1907.72 189.77 1914.27 195.87 1914.27 206.26C1914.27 216.65 1908.85 222.98 1893.72 222.98H1872.48V189.77Z" fill="black"/>
<path d="M2075.57 283.29L2085.06 313.56H2132.73L2081.67 157.91H2022.71L1973.46 313.56H2017.74L2026.78 283.29H2075.57ZM2034.46 249.41C2040.56 227.04 2046.66 204.9 2050.27 188.19H2050.95C2054.34 203.32 2060.44 225.01 2067.66 249.41H2034.46Z" fill="black"/>
<path d="M2242.29 262.28C2240.26 271.09 2235.29 284.42 2216.99 284.42C2193.04 284.42 2186.72 260.02 2186.72 235.4C2186.72 208.07 2194.4 187.06 2216.54 187.06C2233.48 187.06 2239.81 197.45 2242.06 208.52H2287.25C2284.08 181.63 2263.3 154.98 2217.67 154.98C2164.13 154.98 2139.73 192.93 2139.73 236.98C2139.73 282.16 2164.35 316.5 2215.41 316.5C2258.1 316.5 2281.82 294.81 2287.7 262.28H2242.29V262.28Z" fill="black"/>
<path d="M2343.95 313.56H2389.58V191.8H2433.63V157.91H2299.45V191.8H2343.95V313.56Z" fill="black"/>
</svg>
