<svg width="375" height="93" viewBox="0 0 375 93" fill="none" xmlns="http://www.w3.org/2000/svg">
<path fill-rule="evenodd" clip-rule="evenodd" d="M0.0283203 92.6247H0.165923H4.78269H196.709V11.3155C134.805 11.0493 131.97 9.18077 93.3372 7.61441C58.6201 6.20751 14.4753 8.32816 0.0283203 8.59436V92.6247V92.6247Z" fill="#00E377"/>
<path fill-rule="evenodd" clip-rule="evenodd" d="M211.764 11.322C206.232 11.3207 201.108 11.3143 196.33 11.3015V92.5991H211.764V11.322V11.322Z" fill="#00E377"/>
<path d="M196.33 11.0069C201.106 11.0198 206.233 11.0275 211.764 11.0275V11.6152C206.233 11.6152 201.106 11.6088 196.33 11.5946V11.0069Z" fill="black"/>
<path fill-rule="evenodd" clip-rule="evenodd" d="M0 92.5991H1.241V8.56482C0.947788 8.57125 0.523405 8.57383 0 8.57383V92.5991V92.5991Z" fill="#00E377"/>
<path d="M26.7888 7.46527C50.4745 6.80812 73.6639 6.16383 93.3539 7.32124C101.824 7.82021 108.561 8.26774 114.551 8.66511C136.328 10.1119 148.223 10.9015 196.709 11.0339V11.6216C148.219 11.4892 136.313 10.6983 114.514 9.25154C108.516 8.85288 101.768 8.40405 93.3205 7.90765C73.6458 6.75025 50.4733 7.39454 26.8043 8.05169C17.9938 8.29603 9.04578 8.54551 0 8.79114V8.20473C9.04064 7.95782 17.9835 7.70962 26.7888 7.46527V7.46527Z" fill="black"/>
<path fill-rule="evenodd" clip-rule="evenodd" d="M62.9126 9.26827C62.9126 9.26827 60.1734 2.04991 62.1654 0.55685C64.1561 -0.936206 62.4149 4.53961 64.6551 1.8017C66.8953 -0.936215 67.8907 1.05453 65.6505 5.53498C63.4103 10.0154 64.4056 9.02007 64.4056 9.02007L62.9126 9.26827V9.26827Z" fill="#00E377"/>
<path d="M61.9898 0.321502L62.3422 0.792186L62.2084 0.913063L62.0914 1.06353L61.9898 1.24358L61.9049 1.45448L61.8368 1.69368L61.7866 1.95988L61.7532 2.24794L61.7365 2.5553L61.7352 2.88195L61.7506 3.22146L61.7776 3.57254L61.8188 3.93262L61.8702 4.29913L61.9319 4.6695L62.0027 5.03988L62.0798 5.41025L62.1634 5.77676L62.2509 6.13554L62.3422 6.48664L62.4348 6.82742L62.5274 7.15407L62.6199 7.464L62.71 7.75593L62.7961 8.02727L62.8771 8.27546L62.9517 8.49796L63.0186 8.69342L63.0765 8.85803L63.1228 8.9892L63.1588 9.08565L63.1806 9.14609L63.1871 9.1641L62.6379 9.37243L62.6289 9.35056L62.6058 9.28884L62.5698 9.18854L62.5222 9.0535L62.4631 8.88632L62.3949 8.68699L62.319 8.46066L62.2354 8.20732L62.148 7.93211L62.0567 7.63375L61.9628 7.31739L61.8676 6.98561L61.7737 6.63838L61.6812 6.27959L61.5911 5.91049L61.505 5.53499L61.4252 5.1556L61.3532 4.77238L61.2889 4.38786L61.2349 4.00721L61.1925 3.62911L61.1629 3.25747L61.1475 2.89352L61.1487 2.53987L61.1668 2.19907L61.204 1.87115L61.2645 1.55864L61.3481 1.26416L61.4587 0.990236L61.6014 0.738168L61.7776 0.513116L61.9898 0.321502V0.321502ZM64.4281 1.61523L64.882 1.98816L64.6763 2.22993L64.4872 2.43056L64.3149 2.59131L64.1516 2.71605L63.9908 2.80864L63.8198 2.86394L63.6346 2.86909L63.4571 2.80864L63.3208 2.69804L63.2295 2.56816L63.1678 2.43313L63.1241 2.29296L63.0906 2.14636L63.0649 1.9946L63.043 1.83771L63.025 1.67953L63.007 1.52007L62.9903 1.36188L62.971 1.21014L62.9479 1.06739L62.9222 0.934931L62.8926 0.820474L62.8604 0.725311L62.827 0.654574L62.7974 0.613429L62.7794 0.595423L62.7691 0.590274L62.7511 0.587715L62.7022 0.594135L62.6161 0.623711L62.4952 0.688011L62.3422 0.792186L61.9898 0.321502L62.1891 0.185193L62.3795 0.0861682L62.5659 0.0218678L62.755 0L62.9414 0.0282884L63.1073 0.10802L63.2372 0.223764L63.3337 0.357514L63.4031 0.500259L63.4558 0.650728L63.4957 0.805043L63.5279 0.965794L63.5523 1.12783L63.5742 1.29244L63.5922 1.45448L63.6089 1.61266L63.6269 1.7644L63.6462 1.90587L63.668 2.03319L63.6925 2.14121L63.7182 2.22738L63.7426 2.28138L63.7568 2.30325L63.7452 2.29681L63.7182 2.28653H63.7092L63.7439 2.27367L63.8224 2.22993L63.933 2.14378L64.0718 2.01518L64.2365 1.839L64.4281 1.61523V1.61523ZM65.9134 5.66616L65.3874 5.40381L65.5855 4.99743L65.7642 4.6052L65.925 4.22968L66.069 3.87088L66.1938 3.52882L66.3031 3.20345L66.3944 2.89609L66.469 2.60803L66.5294 2.33797L66.5731 2.08848L66.6027 1.85829L66.6169 1.65123L66.6181 1.46605L66.6079 1.30401L66.586 1.16771L66.5551 1.05838L66.5204 0.974805L66.4831 0.918212L66.4497 0.883487L66.4175 0.862907L66.3815 0.85005L66.3301 0.846204L66.2593 0.852624L66.1668 0.877067L66.0536 0.924648L65.925 0.995369L65.7797 1.09311L65.6215 1.21656L65.4517 1.36832L65.2717 1.54707L65.0814 1.75283L64.882 1.98816L64.4281 1.61523L64.6416 1.36445L64.8486 1.1394L65.0492 0.94008L65.2434 0.766456L65.4337 0.618578L65.6176 0.49511L65.7977 0.396101L65.9751 0.321502L66.1526 0.27392L66.3301 0.257202L66.505 0.276495L66.6722 0.333072L66.8213 0.428251L66.9448 0.55299L67.04 0.700884L67.1107 0.865481L67.1608 1.04424L67.1917 1.23843L67.2059 1.44805L67.2046 1.67439L67.1878 1.91744L67.1544 2.17722L67.1055 2.45243L67.0412 2.74563L66.9602 3.05427L66.8625 3.38092L66.7493 3.723L66.6181 4.0805L66.469 4.45474L66.3018 4.8444L66.1179 5.24821L65.9134 5.66616V5.66616ZM64.1979 8.81173L64.6145 9.22711L64.6055 9.23612L64.5927 9.24769L64.576 9.26312L64.5515 9.28242L64.5232 9.30556L64.4885 9.33L64.4461 9.35443L64.3933 9.37887L64.3239 9.40072L64.2262 9.40716L64.1053 9.37887L63.9908 9.29656L63.9252 9.19239L63.8982 9.09722L63.8918 9.01107L63.8957 8.92748L63.9085 8.84131L63.9278 8.74486L63.9561 8.63813L63.9921 8.51723L64.0384 8.38092L64.0937 8.22531L64.1606 8.0517L64.239 7.85751L64.3303 7.64147L64.4358 7.40099L64.5541 7.13735L64.6878 6.84671L64.837 6.53036L65.0029 6.18441L65.1868 5.80891L65.3874 5.40381L65.9134 5.66616L65.7141 6.06868L65.5328 6.44034L65.3681 6.78241L65.2203 7.09492L65.0891 7.38041L64.9733 7.64018L64.8717 7.87294L64.783 8.08256L64.7071 8.26775L64.6454 8.43108L64.594 8.57383L64.5528 8.69599L64.5219 8.79759L64.5001 8.88118L64.4872 8.9442L64.4808 8.98792L64.4795 9.0085V9.00206L64.4679 8.96605L64.4268 8.90175L64.3445 8.84131L64.2609 8.82073L64.2043 8.82459L64.1773 8.83231L64.1696 8.83489L64.176 8.83103L64.1837 8.82459L64.1914 8.81817L64.1979 8.81173L64.2017 8.80916L64.1979 8.81173V8.81173Z" fill="black"/>
<path fill-rule="evenodd" clip-rule="evenodd" d="M314.355 10.3434C288.717 10.3434 256.199 11.322 214.586 11.322H211.29V92.5991H375V8.57125C354.452 8.48252 334.325 10.3434 314.355 10.3434Z" fill="#00E377"/>
<path d="M375 8.82323C322.122 10.261 265.978 11.6152 214.586 11.6152L211.29 11.6139V11.0262L214.586 11.0274C265.978 11.0274 322.123 9.67457 375 8.23682V8.82323Z" fill="black"/>
<path fill-rule="evenodd" clip-rule="evenodd" d="M334.579 9.99226C334.579 9.99226 331.841 6.75538 333.334 5.76C334.829 4.76463 335.326 7.25306 335.326 7.25306C335.326 7.25306 336.571 3.51978 338.064 4.26695C339.557 5.01284 338.064 8.7474 336.819 9.74277C335.574 10.7381 334.579 9.99226 334.579 9.99226V9.99226Z" fill="#00E377"/>
<path d="M333.173 5.51571L333.498 6.0044L333.405 6.07769L333.333 6.15485L333.278 6.23845L333.236 6.33103L333.206 6.43263L333.188 6.54838L333.183 6.6744L333.192 6.81071L333.214 6.95732L333.247 7.11036L333.292 7.27111L333.349 7.43573L333.414 7.6029L333.489 7.77266L333.57 7.94241L333.656 8.11088L333.749 8.27805L333.844 8.44138L333.94 8.60084L334.039 8.75517L334.136 8.90305L334.232 9.04324L334.325 9.17568L334.412 9.29658L334.495 9.40846L334.571 9.50748L334.637 9.59492L334.695 9.66824L334.742 9.7261L334.776 9.76853L334.798 9.79426L334.805 9.80197L334.356 10.1814L334.345 10.1698L334.322 10.1415L334.285 10.0952L334.235 10.0335L334.174 9.9563L334.104 9.86498L334.024 9.76082L333.938 9.64379L333.845 9.51648L333.749 9.3776L333.648 9.23099L333.546 9.07539L333.441 8.91206L333.339 8.7423L333.237 8.56741L333.138 8.38736L333.043 8.20347L332.954 8.01699L332.872 7.82795L332.797 7.63762L332.732 7.44601L332.678 7.2544L332.635 7.06278L332.607 6.87117L332.595 6.68084L332.603 6.49307L332.631 6.30661L332.684 6.12528L332.765 5.95167L332.873 5.78834L333.009 5.64302L333.173 5.51571V5.51571ZM335.048 7.16052L335.606 7.34698L335.039 7.31097L335.037 7.30841L335.033 7.29041L335.027 7.26082L335.017 7.22096L335.004 7.16951L334.987 7.11036L334.968 7.04349L334.946 6.97019L334.919 6.89173L334.889 6.80944L334.857 6.72327L334.82 6.63453L334.78 6.54709L334.738 6.45964L334.691 6.3722L334.641 6.28989L334.59 6.21016L334.535 6.13685L334.478 6.0687L334.419 6.00825L334.36 5.95553L334.299 5.91179L334.237 5.87709L334.176 5.85007L334.114 5.83078L334.048 5.82049L333.978 5.81921L333.901 5.82822L333.814 5.84878L333.719 5.88351L333.614 5.93495L333.498 6.0044L333.173 5.51571L333.331 5.41926L333.488 5.3421L333.645 5.28551L333.799 5.24951L333.951 5.23151L334.099 5.23535L334.241 5.25722L334.376 5.29709L334.502 5.3511L334.618 5.41797L334.726 5.49642L334.824 5.58258L334.914 5.67389L334.996 5.77162L335.071 5.87322L335.14 5.97738L335.203 6.08284L335.26 6.18958L335.313 6.29631L335.36 6.40177L335.403 6.50466L335.441 6.60495L335.475 6.70012L335.505 6.79015L335.531 6.87374L335.553 6.9509L335.572 7.01777L335.588 7.07693L335.599 7.12451L335.607 7.16181L335.612 7.18495L335.615 7.19524L335.048 7.16052V7.16052ZM338.196 4.00336L337.933 4.52934L337.834 4.48948L337.743 4.46761L337.656 4.46248L337.568 4.47018L337.477 4.49334L337.382 4.53062L337.284 4.58464L337.182 4.65409L337.08 4.73767L336.977 4.83541L336.874 4.946L336.771 5.06689L336.672 5.19807L336.574 5.33695L336.479 5.48098L336.389 5.63017L336.302 5.78191L336.218 5.93495L336.138 6.08798L336.064 6.23973L335.994 6.38763L335.93 6.53037L335.869 6.66668L335.815 6.79401L335.768 6.91231L335.725 7.02033L335.688 7.11551L335.658 7.19652L335.635 7.26082L335.619 7.30841L335.608 7.33799L335.606 7.34698L335.048 7.16052L335.052 7.14766L335.063 7.11422L335.081 7.06278L335.107 6.99333L335.139 6.90716L335.178 6.80687L335.221 6.6937L335.273 6.56896L335.329 6.43392L335.392 6.29118L335.46 6.14071L335.534 5.98382L335.613 5.82307L335.698 5.65974L335.788 5.49513L335.882 5.33053L335.983 5.16721L336.088 5.00646L336.197 4.84955L336.313 4.6991L336.433 4.55635L336.559 4.42132L336.691 4.29658L336.83 4.18341L336.977 4.08309L337.132 3.99821L337.296 3.93391L337.468 3.89019L337.648 3.87347L337.832 3.88633L338.016 3.93007L338.196 4.00336V4.00336ZM337.004 9.97173L336.636 9.51391L336.737 9.42518L336.843 9.32229L336.952 9.2027L337.062 9.07024L337.171 8.92492L337.281 8.76803L337.389 8.60084L337.495 8.42466L337.599 8.24077L337.698 8.04914L337.795 7.85239L337.885 7.65177L337.971 7.4473L338.049 7.24154L338.122 7.03449L338.187 6.82743L338.245 6.62167L338.294 6.41849L338.333 6.22044L338.364 6.02625L338.385 5.8385L338.395 5.65845L338.394 5.48871L338.384 5.32924L338.362 5.18135L338.33 5.04631L338.287 4.92672L338.236 4.82126L338.175 4.72996L338.106 4.65152L338.026 4.58464L337.933 4.52934L338.196 4.00336L338.366 4.10496L338.515 4.22841L338.642 4.37116L338.746 4.53062L338.83 4.70038L338.893 4.8817L338.939 5.06947L338.967 5.26623L338.982 5.46813L338.983 5.67517L338.97 5.88737L338.947 6.10341L338.912 6.32333L338.867 6.5458L338.813 6.76957L338.751 6.99462L338.679 7.21967L338.601 7.44472L338.516 7.6672L338.423 7.88712L338.327 8.10316L338.223 8.31407L338.116 8.51982L338.004 8.72045L337.888 8.91206L337.769 9.09595L337.647 9.26958L337.523 9.43417L337.396 9.58722L337.267 9.72867L337.136 9.85728L337.004 9.97173V9.97173Z" fill="black"/>
<path fill-rule="evenodd" clip-rule="evenodd" d="M218.627 12.3174C218.627 12.3174 215.889 10.3266 217.631 8.58407C219.374 6.84153 220.867 10.5748 220.867 10.5748C220.867 10.5748 221.117 8.83227 222.361 9.08176C223.605 9.32996 223.605 12.5655 223.605 12.5655C223.605 12.5655 225.846 6.09436 229.828 6.09436C233.811 6.09436 229.33 12.5656 227.09 12.815C224.85 13.0645 223.357 15.8024 218.627 12.3174V12.3174Z" fill="#00E377"/>
<path d="M217.423 8.37581L217.84 8.79118L217.706 8.9365L217.598 9.07925L217.512 9.21944L217.445 9.35703L217.397 9.49336L217.365 9.62709L217.349 9.76084L217.346 9.89459L217.356 10.0283L217.378 10.1621L217.412 10.2945L217.457 10.4283L217.511 10.5607L217.574 10.6906L217.644 10.8179L217.723 10.944L217.805 11.0649L217.893 11.1819L217.983 11.2938L218.074 11.4018L218.165 11.5021L218.255 11.596L218.344 11.6834L218.428 11.7644L218.506 11.8365L218.579 11.8995L218.644 11.9548L218.699 11.9998L218.744 12.0358L218.776 12.0615L218.797 12.0769L218.8 12.0795L218.455 12.5553L218.443 12.5463L218.419 12.5283L218.379 12.4975L218.329 12.4563L218.265 12.4049L218.193 12.3444L218.114 12.2737L218.026 12.194L217.932 12.1052L217.836 12.0075L217.734 11.9033L217.633 11.7889L217.529 11.6693L217.427 11.5407L217.327 11.4056L217.23 11.2642L217.138 11.1163L217.052 10.9607L216.974 10.7999L216.905 10.6328L216.848 10.4604L216.802 10.2817L216.772 10.0978L216.758 9.91002L216.762 9.71712L216.787 9.52293L216.834 9.32617L216.902 9.13069L216.996 8.93779L217.113 8.74618L217.256 8.55842L217.423 8.37581V8.37581ZM220.576 10.5337L221.159 10.616L220.594 10.6842L220.592 10.6765L220.579 10.6482L220.56 10.6019L220.531 10.5389L220.497 10.4604L220.453 10.3691L220.403 10.2662L220.346 10.1544L220.282 10.0335L220.213 9.90745L220.137 9.77627L220.054 9.64123L219.967 9.50621L219.874 9.37246L219.778 9.24129L219.676 9.11269L219.572 8.99181L219.464 8.87735L219.353 8.77318L219.242 8.68059L219.128 8.59957L219.017 8.5327L218.905 8.47998L218.795 8.44397L218.687 8.42081L218.581 8.41439L218.471 8.42339L218.359 8.44912L218.24 8.49541L218.114 8.56613L217.98 8.66387L217.84 8.79118L217.423 8.37581L217.608 8.20863L217.796 8.07102L217.988 7.96429L218.183 7.8884L218.38 7.84211L218.574 7.82668L218.766 7.83826L218.95 7.87555L219.125 7.93471L219.292 8.01316L219.45 8.10832L219.602 8.21505L219.743 8.33337L219.879 8.46197L220.008 8.597L220.129 8.73847L220.245 8.88379L220.354 9.03167L220.456 9.18085L220.552 9.32874L220.641 9.47535L220.724 9.61681L220.799 9.75312L220.868 9.883L220.929 10.0039L220.983 10.1145L221.029 10.2122L221.068 10.2971L221.099 10.3665L221.122 10.4193L221.135 10.4514L221.141 10.4656L220.576 10.5337V10.5337ZM222.419 8.79247L222.304 9.36989L222.215 9.35574L222.135 9.35059L222.062 9.35317L221.994 9.36347L221.931 9.3789L221.871 9.39946L221.816 9.42519L221.762 9.45606L221.711 9.49336L221.661 9.53579L221.613 9.58208L221.567 9.63353L221.523 9.68882L221.482 9.74798L221.443 9.80971L221.406 9.87401L221.372 9.9396L221.342 10.0065L221.313 10.0733L221.288 10.1389L221.264 10.2045L221.244 10.2675L221.226 10.3267L221.209 10.382L221.196 10.4347L221.185 10.481L221.176 10.5222L221.169 10.5569L221.164 10.5852L221.16 10.6045L221.159 10.6148V10.616L220.576 10.5337L220.578 10.5247L220.58 10.5067L220.585 10.4797L220.592 10.4437L220.601 10.4L220.612 10.3498L220.625 10.292L220.642 10.2302L220.661 10.1621L220.683 10.0888L220.708 10.0129L220.737 9.93316L220.768 9.85085L220.804 9.76728L220.845 9.68111L220.889 9.59494L220.938 9.50879L220.992 9.42262L221.051 9.33774L221.117 9.25543L221.187 9.1757L221.266 9.09983L221.351 9.02782L221.443 8.96223L221.544 8.90435L221.65 8.8542L221.765 8.81434L221.886 8.78476L222.012 8.76804L222.143 8.7629L222.279 8.77189L222.419 8.79247V8.79247ZM223.327 12.4705L223.883 12.6621L223.312 12.5656V12.5592V12.5335L223.311 12.4923L223.309 12.4345L223.307 12.3637L223.304 12.2788L223.299 12.1824L223.293 12.0757L223.285 11.9586L223.275 11.8339L223.263 11.7001L223.247 11.5625L223.231 11.4185L223.21 11.2719L223.187 11.1214L223.161 10.971L223.132 10.8192L223.098 10.67L223.061 10.5222L223.02 10.3781L222.976 10.2392L222.927 10.1068L222.876 9.98203L222.819 9.86629L222.76 9.76084L222.698 9.66696L222.635 9.58466L222.571 9.51649L222.505 9.46121L222.44 9.42004L222.373 9.38918L222.304 9.36989L222.419 8.79247L222.575 8.83748L222.72 8.90307L222.854 8.98795L222.974 9.08826L223.08 9.20143L223.177 9.32488L223.263 9.45606L223.341 9.59494L223.412 9.74155L223.475 9.8933L223.532 10.0489L223.583 10.2084L223.629 10.3704L223.671 10.535L223.707 10.6996L223.739 10.8629L223.767 11.0263L223.793 11.187L223.813 11.3439L223.831 11.4957L223.848 11.6423L223.861 11.7824L223.871 11.9149L223.879 12.0384L223.887 12.1502L223.89 12.2531L223.894 12.3419L223.897 12.4177L223.898 12.4795L223.9 12.5258V12.554V12.5656L223.327 12.4705V12.4705ZM229.828 5.79993V6.38893L229.49 6.40565L229.161 6.4558L228.839 6.53554L228.527 6.64613L228.222 6.78244L227.926 6.94448L227.638 7.12967L227.358 7.33672L227.088 7.56306L226.826 7.80611L226.574 8.06331L226.333 8.33337L226.101 8.61371L225.88 8.90178L225.669 9.19499L225.47 9.49078L225.281 9.78784L225.104 10.0823L224.939 10.373L224.784 10.6559L224.642 10.9311L224.51 11.1935L224.392 11.4429L224.287 11.6757L224.191 11.8892L224.11 12.0821L224.041 12.2518L223.983 12.3946L223.939 12.5103L223.907 12.5952L223.889 12.6466L223.883 12.6621L223.327 12.4705L223.335 12.4486L223.356 12.392L223.389 12.302L223.435 12.1811L223.496 12.0306L223.568 11.8558L223.653 11.6551L223.75 11.4339L223.86 11.1935L223.982 10.9363L224.117 10.6649L224.265 10.3807L224.424 10.0862L224.597 9.78527L224.78 9.47792L224.977 9.16928L225.187 8.85935L225.408 8.55199L225.641 8.2472L225.886 7.95015L226.145 7.66208L226.415 7.38559L226.698 7.12195L226.994 6.87503L227.304 6.64613L227.625 6.43908L227.961 6.25647L228.309 6.09958L228.671 5.97226L229.045 5.87837L229.431 5.82051L229.828 5.79993V5.79993ZM227.122 13.107L227.058 12.5232L227.232 12.4897L227.426 12.4254L227.638 12.329L227.862 12.203L228.094 12.0499L228.334 11.8712L228.577 11.6693L228.82 11.4468L229.063 11.2063L229.301 10.9504L229.534 10.6803L229.759 10.4L229.973 10.1106L230.175 9.81614L230.363 9.51907L230.535 9.22072L230.688 8.92365L230.822 8.63301L230.933 8.3488L231.02 8.07617L231.082 7.81768L231.117 7.57591L231.124 7.35601L231.106 7.15925L231.063 6.98948L230.994 6.84417L230.902 6.72071L230.778 6.61398L230.616 6.52395L230.407 6.45194L230.144 6.40565L229.828 6.38893V5.79993L230.21 5.82051L230.551 5.88223L230.853 5.98512L231.114 6.13173L231.33 6.31948L231.499 6.54196L231.616 6.79145L231.685 7.05893L231.712 7.33929L231.702 7.62993L231.659 7.92828L231.586 8.23435L231.487 8.54557L231.363 8.86192L231.217 9.18214L231.051 9.50235L230.867 9.82257L230.666 10.1402L230.452 10.4527L230.224 10.7588L229.986 11.0558L229.739 11.3426L229.485 11.6153L229.226 11.8725L228.963 12.113L228.698 12.3329L228.433 12.5309L228.168 12.7058L227.904 12.8537L227.642 12.972L227.381 13.0582L227.122 13.107V13.107Z" fill="black"/>
</svg>
